# xmcd CD database file
#
# Track frame offsets:
#	182
#	20275
#	47545
#	62390
#	86120
#	100702
#	114765
#	135565
#	155305
#	168957
#	189785
#	215462
#	239237
#
# Disc length: 3350 seconds
#
# Revision: 0
# Processed by: cddbd v1.5.1PL2 Copyright (c) Steve Scherf et al.
# Submitted via: CDex 1.51
#
DISCID=9a0d140d
DTITLE=Bruce Stark - Dream Song
DYEAR=1994
DGENRE=Jazz
TTITLE0=Dream Song
TTITLE1=Rebecca's Song
TTITLE2=Dance I
TTITLE3=Interlude I
TTITLE4=Impromptu I
TTITLE5=Black Eyes Shining
TTITLE6=Gliding Song
TTITLE7=Interlude II
TTITLE8=Impromptu II
TTITLE9=Music Box
TTITLE10=Dance II
TTITLE11=Meditation
TTITLE12=Laguna Beach
EXTD=YEAR: 1994
EXTT0=
EXTT1=
EXTT2=
EXTT3=
EXTT4=
EXTT5=
EXTT6=
EXTT7=
EXTT8=
EXTT9=
EXTT10=
EXTT11=
EXTT12=
PLAYORDER=
